<mxfile host="app.diagrams.net" modified="2021-11-23T18:24:46.165Z" agent="5.0 (Windows NT 10.0; Win64; x64) AppleWebKit/537.36 (KHTML, like Gecko) Chrome/95.0.4638.69 Safari/537.36 Edg/95.0.1020.53" etag="7L3RHOWXBInc0yeZyCly" version="15.8.2" type="github">
  <diagram name="Page-1" id="7e0a89b8-554c-2b80-1dc8-d5c74ca68de4">
    <mxGraphModel dx="1219" dy="706" grid="0" gridSize="10" guides="1" tooltips="1" connect="1" arrows="1" fold="1" page="1" pageScale="1" pageWidth="1100" pageHeight="850" background="#283618" math="0" shadow="0">
      <root>
        <mxCell id="0" />
        <mxCell id="1" parent="0" />
        <mxCell id="GAfLz1i0Z42PF5BYAtSP-5" style="edgeStyle=orthogonalEdgeStyle;orthogonalLoop=1;jettySize=auto;html=1;exitX=1;exitY=0.5;exitDx=0;exitDy=0;exitPerimeter=0;entryX=0;entryY=0.5;entryDx=0;entryDy=0;entryPerimeter=0;endArrow=oval;endFill=1;rounded=0;labelBackgroundColor=#283618;strokeColor=#DDA15E;fontColor=#FEFAE0;" edge="1" parent="1" source="GAfLz1i0Z42PF5BYAtSP-1" target="GAfLz1i0Z42PF5BYAtSP-2">
          <mxGeometry relative="1" as="geometry" />
        </mxCell>
        <mxCell id="GAfLz1i0Z42PF5BYAtSP-1" value="9V" style="verticalLabelPosition=bottom;shadow=0;align=center;fillColor=#BC6C25;html=1;verticalAlign=top;strokeWidth=2;shape=mxgraph.electrical.miscellaneous.monocell_battery;comic=0;labelBackgroundColor=none;fontFamily=Verdana;fontSize=12;flipH=1;rotation=90;rounded=0;strokeColor=#DDA15E;fontColor=#FEFAE0;" vertex="1" parent="1">
          <mxGeometry x="160" y="337" width="78" height="40" as="geometry" />
        </mxCell>
        <mxCell id="GAfLz1i0Z42PF5BYAtSP-4" style="edgeStyle=orthogonalEdgeStyle;orthogonalLoop=1;jettySize=auto;html=1;exitX=1;exitY=0.5;exitDx=0;exitDy=0;exitPerimeter=0;entryX=1;entryY=0.5;entryDx=0;entryDy=0;entryPerimeter=0;endArrow=oval;endFill=1;rounded=0;labelBackgroundColor=#283618;strokeColor=#DDA15E;fontColor=#FEFAE0;" edge="1" parent="1" source="GAfLz1i0Z42PF5BYAtSP-2" target="GAfLz1i0Z42PF5BYAtSP-3">
          <mxGeometry relative="1" as="geometry" />
        </mxCell>
        <mxCell id="GAfLz1i0Z42PF5BYAtSP-2" value="1000&amp;nbsp;&lt;b&gt;Ω&lt;/b&gt;" style="verticalLabelPosition=bottom;shadow=0;dashed=0;align=center;html=1;verticalAlign=top;strokeWidth=1;shape=mxgraph.electrical.resistors.resistor_2;comic=0;labelBackgroundColor=none;fontFamily=Verdana;fontSize=12;rounded=0;fillColor=#BC6C25;strokeColor=#DDA15E;fontColor=#FEFAE0;" vertex="1" parent="1">
          <mxGeometry x="259" y="278" width="100" height="20" as="geometry" />
        </mxCell>
        <mxCell id="GAfLz1i0Z42PF5BYAtSP-3" value="2200&amp;nbsp;&lt;b&gt;Ω&lt;/b&gt;" style="verticalLabelPosition=bottom;shadow=0;dashed=0;align=center;html=1;verticalAlign=top;strokeWidth=1;shape=mxgraph.electrical.resistors.resistor_2;comic=0;labelBackgroundColor=none;fontFamily=Verdana;fontSize=12;rotation=-90;rounded=0;fillColor=#BC6C25;strokeColor=#DDA15E;fontColor=#FEFAE0;" vertex="1" parent="1">
          <mxGeometry x="347" y="328" width="100" height="20" as="geometry" />
        </mxCell>
        <mxCell id="GAfLz1i0Z42PF5BYAtSP-14" style="edgeStyle=orthogonalEdgeStyle;orthogonalLoop=1;jettySize=auto;html=1;entryX=0;entryY=0.5;entryDx=0;entryDy=0;entryPerimeter=0;endArrow=oval;endFill=1;rounded=0;labelBackgroundColor=#283618;strokeColor=#DDA15E;fontColor=#FEFAE0;" edge="1" parent="1" source="GAfLz1i0Z42PF5BYAtSP-7" target="GAfLz1i0Z42PF5BYAtSP-1">
          <mxGeometry relative="1" as="geometry" />
        </mxCell>
        <mxCell id="GAfLz1i0Z42PF5BYAtSP-7" value="" style="pointerEvents=1;verticalLabelPosition=bottom;shadow=0;dashed=0;align=center;html=1;verticalAlign=top;shape=mxgraph.electrical.signal_sources.protective_earth;rounded=0;fillColor=#BC6C25;strokeColor=#DDA15E;fontColor=#FEFAE0;" vertex="1" parent="1">
          <mxGeometry x="186.5" y="548" width="25" height="20" as="geometry" />
        </mxCell>
        <mxCell id="GAfLz1i0Z42PF5BYAtSP-16" style="edgeStyle=orthogonalEdgeStyle;orthogonalLoop=1;jettySize=auto;html=1;entryX=0;entryY=0.5;entryDx=0;entryDy=0;entryPerimeter=0;endArrow=oval;endFill=1;exitX=0;exitY=0.5;exitDx=0;exitDy=0;exitPerimeter=0;rounded=0;labelBackgroundColor=#283618;strokeColor=#DDA15E;fontColor=#FEFAE0;" edge="1" parent="1" source="GAfLz1i0Z42PF5BYAtSP-18" target="GAfLz1i0Z42PF5BYAtSP-3">
          <mxGeometry relative="1" as="geometry">
            <mxPoint x="397" y="418" as="sourcePoint" />
          </mxGeometry>
        </mxCell>
        <mxCell id="GAfLz1i0Z42PF5BYAtSP-9" value="5 mA" style="verticalLabelPosition=top;verticalAlign=bottom;shape=mxgraph.electrical.signal_sources.current_flow;shadow=0;dashed=0;align=center;strokeWidth=1;fontSize=10;html=1;rounded=0;fillColor=#BC6C25;strokeColor=#DDA15E;fontColor=#FEFAE0;" vertex="1" parent="1">
          <mxGeometry x="277" y="253" width="70" height="10" as="geometry" />
        </mxCell>
        <mxCell id="GAfLz1i0Z42PF5BYAtSP-13" style="edgeStyle=orthogonalEdgeStyle;orthogonalLoop=1;jettySize=auto;html=1;exitX=1;exitY=0.5;exitDx=0;exitDy=0;exitPerimeter=0;entryX=1;entryY=0.5;entryDx=0;entryDy=0;entryPerimeter=0;endArrow=oval;endFill=1;rounded=0;labelBackgroundColor=#283618;strokeColor=#DDA15E;fontColor=#FEFAE0;" edge="1" parent="1" source="GAfLz1i0Z42PF5BYAtSP-12" target="GAfLz1i0Z42PF5BYAtSP-3">
          <mxGeometry relative="1" as="geometry">
            <Array as="points">
              <mxPoint x="477" y="288" />
            </Array>
          </mxGeometry>
        </mxCell>
        <mxCell id="GAfLz1i0Z42PF5BYAtSP-17" style="edgeStyle=orthogonalEdgeStyle;orthogonalLoop=1;jettySize=auto;html=1;endArrow=oval;endFill=1;rounded=0;labelBackgroundColor=#283618;strokeColor=#DDA15E;fontColor=#FEFAE0;" edge="1" parent="1" source="GAfLz1i0Z42PF5BYAtSP-12">
          <mxGeometry relative="1" as="geometry">
            <mxPoint x="397" y="388" as="targetPoint" />
            <Array as="points">
              <mxPoint x="477" y="398" />
              <mxPoint x="397" y="398" />
            </Array>
          </mxGeometry>
        </mxCell>
        <mxCell id="GAfLz1i0Z42PF5BYAtSP-12" value="" style="pointerEvents=1;verticalLabelPosition=bottom;shadow=0;dashed=0;align=center;html=1;verticalAlign=top;shape=mxgraph.electrical.capacitors.capacitor_1;strokeWidth=1;rotation=-90;rounded=0;fillColor=#BC6C25;strokeColor=#DDA15E;fontColor=#FEFAE0;" vertex="1" parent="1">
          <mxGeometry x="437" y="318" width="80" height="40" as="geometry" />
        </mxCell>
        <mxCell id="GAfLz1i0Z42PF5BYAtSP-35" style="edgeStyle=orthogonalEdgeStyle;orthogonalLoop=1;jettySize=auto;html=1;entryX=0.5;entryY=0;entryDx=0;entryDy=0;entryPerimeter=0;endArrow=oval;endFill=1;rounded=0;labelBackgroundColor=#283618;strokeColor=#DDA15E;fontColor=#FEFAE0;" edge="1" parent="1" source="GAfLz1i0Z42PF5BYAtSP-18" target="GAfLz1i0Z42PF5BYAtSP-7">
          <mxGeometry relative="1" as="geometry" />
        </mxCell>
        <mxCell id="GAfLz1i0Z42PF5BYAtSP-18" value="" style="pointerEvents=1;fillColor=#BC6C25;verticalLabelPosition=bottom;shadow=0;dashed=0;align=center;html=1;verticalAlign=top;shape=mxgraph.electrical.diodes.diode;strokeWidth=1;rotation=-180;rounded=0;strokeColor=#DDA15E;fontColor=#FEFAE0;" vertex="1" parent="1">
          <mxGeometry x="277" y="478" width="80" height="40" as="geometry" />
        </mxCell>
        <mxCell id="GAfLz1i0Z42PF5BYAtSP-19" value="`" style="verticalLabelPosition=bottom;shadow=0;dashed=0;align=center;html=1;verticalAlign=top;shape=mxgraph.electrical.transistors.npn_transistor_1;strokeWidth=1;rounded=0;fillColor=#BC6C25;strokeColor=#DDA15E;fontColor=#FEFAE0;" vertex="1" parent="1">
          <mxGeometry x="817" y="318" width="80" height="80" as="geometry" />
        </mxCell>
        <mxCell id="GAfLz1i0Z42PF5BYAtSP-21" style="edgeStyle=orthogonalEdgeStyle;orthogonalLoop=1;jettySize=auto;html=1;entryX=0.7;entryY=1;entryDx=0;entryDy=0;entryPerimeter=0;endArrow=oval;endFill=1;exitX=0;exitY=0.5;exitDx=0;exitDy=0;exitPerimeter=0;rounded=0;labelBackgroundColor=#283618;strokeColor=#DDA15E;fontColor=#FEFAE0;" edge="1" parent="1" source="GAfLz1i0Z42PF5BYAtSP-18" target="GAfLz1i0Z42PF5BYAtSP-19">
          <mxGeometry relative="1" as="geometry">
            <mxPoint x="871.5" y="416" as="sourcePoint" />
          </mxGeometry>
        </mxCell>
        <mxCell id="GAfLz1i0Z42PF5BYAtSP-29" style="edgeStyle=orthogonalEdgeStyle;orthogonalLoop=1;jettySize=auto;html=1;entryX=1;entryY=0.5;entryDx=0;entryDy=0;entryPerimeter=0;endArrow=oval;endFill=1;rounded=0;labelBackgroundColor=#283618;strokeColor=#DDA15E;fontColor=#FEFAE0;" edge="1" parent="1" source="GAfLz1i0Z42PF5BYAtSP-22" target="GAfLz1i0Z42PF5BYAtSP-23">
          <mxGeometry relative="1" as="geometry" />
        </mxCell>
        <mxCell id="GAfLz1i0Z42PF5BYAtSP-36" style="edgeStyle=orthogonalEdgeStyle;orthogonalLoop=1;jettySize=auto;html=1;entryX=0;entryY=0.5;entryDx=0;entryDy=0;entryPerimeter=0;endArrow=oval;endFill=1;rounded=0;labelBackgroundColor=#283618;strokeColor=#DDA15E;fontColor=#FEFAE0;" edge="1" parent="1" source="GAfLz1i0Z42PF5BYAtSP-22" target="GAfLz1i0Z42PF5BYAtSP-19">
          <mxGeometry relative="1" as="geometry" />
        </mxCell>
        <mxCell id="GAfLz1i0Z42PF5BYAtSP-22" value="1000&lt;b&gt;Ω&lt;/b&gt;" style="verticalLabelPosition=bottom;shadow=0;dashed=0;align=center;html=1;verticalAlign=top;strokeWidth=1;shape=mxgraph.electrical.resistors.resistor_2;comic=0;labelBackgroundColor=none;fontFamily=Verdana;fontSize=12;rounded=0;fillColor=#BC6C25;strokeColor=#DDA15E;fontColor=#FEFAE0;" vertex="1" parent="1">
          <mxGeometry x="667" y="347" width="100" height="20" as="geometry" />
        </mxCell>
        <mxCell id="GAfLz1i0Z42PF5BYAtSP-25" style="edgeStyle=orthogonalEdgeStyle;orthogonalLoop=1;jettySize=auto;html=1;exitX=0.5;exitY=0;exitDx=0;exitDy=0;exitPerimeter=0;endArrow=oval;endFill=1;rounded=0;labelBackgroundColor=#283618;strokeColor=#DDA15E;fontColor=#FEFAE0;" edge="1" parent="1" source="GAfLz1i0Z42PF5BYAtSP-23">
          <mxGeometry relative="1" as="geometry">
            <mxPoint x="477" y="288" as="targetPoint" />
            <Array as="points">
              <mxPoint x="604" y="288" />
            </Array>
          </mxGeometry>
        </mxCell>
        <mxCell id="GAfLz1i0Z42PF5BYAtSP-23" value="" style="pointerEvents=1;verticalLabelPosition=bottom;shadow=0;dashed=0;align=center;html=1;verticalAlign=top;shape=mxgraph.electrical.miscellaneous.generic_component;strokeWidth=1;rounded=0;fillColor=#BC6C25;strokeColor=#DDA15E;fontColor=#FEFAE0;" vertex="1" parent="1">
          <mxGeometry x="569" y="318" width="70" height="80" as="geometry" />
        </mxCell>
        <mxCell id="GAfLz1i0Z42PF5BYAtSP-27" style="edgeStyle=orthogonalEdgeStyle;orthogonalLoop=1;jettySize=auto;html=1;endArrow=oval;endFill=1;exitX=0;exitY=0.5;exitDx=0;exitDy=0;exitPerimeter=0;rounded=0;labelBackgroundColor=#283618;strokeColor=#DDA15E;fontColor=#FEFAE0;" edge="1" parent="1" source="GAfLz1i0Z42PF5BYAtSP-18" target="GAfLz1i0Z42PF5BYAtSP-23">
          <mxGeometry relative="1" as="geometry">
            <mxPoint x="604" y="438" as="sourcePoint" />
          </mxGeometry>
        </mxCell>
        <mxCell id="GAfLz1i0Z42PF5BYAtSP-32" style="edgeStyle=orthogonalEdgeStyle;orthogonalLoop=1;jettySize=auto;html=1;exitX=1;exitY=1;exitDx=0;exitDy=0;exitPerimeter=0;entryX=0.7;entryY=0;entryDx=0;entryDy=0;entryPerimeter=0;endArrow=oval;endFill=1;rounded=0;labelBackgroundColor=#283618;strokeColor=#DDA15E;fontColor=#FEFAE0;" edge="1" parent="1" source="GAfLz1i0Z42PF5BYAtSP-30" target="GAfLz1i0Z42PF5BYAtSP-19">
          <mxGeometry relative="1" as="geometry" />
        </mxCell>
        <mxCell id="GAfLz1i0Z42PF5BYAtSP-33" style="edgeStyle=orthogonalEdgeStyle;orthogonalLoop=1;jettySize=auto;html=1;exitX=0;exitY=1;exitDx=0;exitDy=0;exitPerimeter=0;entryX=0.864;entryY=0.5;entryDx=0;entryDy=0;entryPerimeter=0;endArrow=oval;endFill=1;rounded=0;labelBackgroundColor=#283618;strokeColor=#DDA15E;fontColor=#FEFAE0;" edge="1" parent="1" source="GAfLz1i0Z42PF5BYAtSP-30" target="GAfLz1i0Z42PF5BYAtSP-1">
          <mxGeometry relative="1" as="geometry">
            <Array as="points">
              <mxPoint x="781" y="218" />
              <mxPoint x="199" y="218" />
            </Array>
          </mxGeometry>
        </mxCell>
        <mxCell id="GAfLz1i0Z42PF5BYAtSP-30" value="" style="verticalLabelPosition=bottom;shadow=0;dashed=0;align=center;html=1;verticalAlign=top;shape=mxgraph.electrical.rot_mech.field;pointerEvents=1;strokeWidth=1;rounded=0;fillColor=#BC6C25;strokeColor=#DDA15E;fontColor=#FEFAE0;" vertex="1" parent="1">
          <mxGeometry x="781" y="200" width="90" height="15" as="geometry" />
        </mxCell>
        <mxCell id="GAfLz1i0Z42PF5BYAtSP-38" style="edgeStyle=orthogonalEdgeStyle;orthogonalLoop=1;jettySize=auto;html=1;endArrow=oval;endFill=1;rounded=0;labelBackgroundColor=#283618;strokeColor=#DDA15E;fontColor=#FEFAE0;" edge="1" parent="1" source="GAfLz1i0Z42PF5BYAtSP-37">
          <mxGeometry relative="1" as="geometry">
            <mxPoint x="797" y="358" as="targetPoint" />
          </mxGeometry>
        </mxCell>
        <mxCell id="GAfLz1i0Z42PF5BYAtSP-39" style="edgeStyle=orthogonalEdgeStyle;orthogonalLoop=1;jettySize=auto;html=1;endArrow=oval;endFill=1;rounded=0;labelBackgroundColor=#283618;strokeColor=#DDA15E;fontColor=#FEFAE0;" edge="1" parent="1" source="GAfLz1i0Z42PF5BYAtSP-37">
          <mxGeometry relative="1" as="geometry">
            <mxPoint x="797" y="498" as="targetPoint" />
          </mxGeometry>
        </mxCell>
        <mxCell id="GAfLz1i0Z42PF5BYAtSP-37" value="" style="pointerEvents=1;verticalLabelPosition=bottom;shadow=0;dashed=0;align=center;html=1;verticalAlign=top;shape=mxgraph.electrical.capacitors.capacitor_1;strokeWidth=1;rotation=-90;rounded=0;fillColor=#BC6C25;strokeColor=#DDA15E;fontColor=#FEFAE0;" vertex="1" parent="1">
          <mxGeometry x="772" y="393" width="50" height="40" as="geometry" />
        </mxCell>
      </root>
    </mxGraphModel>
  </diagram>
</mxfile>
